<svg width="387" height="460" viewBox="0 0 387 460" fill="none" xmlns="http://www.w3.org/2000/svg">
<path d="M105.288 189.821H81.6028V145.28H105.131V121.59H126.147V144.964H149.828V189.671H126.147V189.822H105.288V189.821ZM24.8008 398.87C24.8128 399.97 24.8308 400.791 24.8428 401.329C24.8488 401.66 24.7898 401.967 24.7718 402.292C25.5108 420.516 40.5268 435.109 58.9178 435.109H362.678V401.648C362.678 394.968 368.099 389.543 374.783 389.543C381.462 389.543 386.888 394.969 386.888 401.648V447.213C386.888 453.899 381.461 459.318 374.783 459.318H57.0908C56.4618 459.318 55.8558 459.229 55.2438 459.135C24.7388 457.225 0.486816 431.874 0.486816 400.89C0.486816 400.18 0.571817 399.494 0.595817 398.791C0.220817 362.848 0.595817 89.431 0.637817 59.682C0.590817 59.259 0.510818 58.855 0.510818 58.423C0.510818 26.205 26.7188 0 58.9378 0H78.2808H371.816H374.771C381.456 0 386.876 5.423 386.876 12.105V354.244C386.876 360.923 381.455 366.348 374.771 366.348C374.7 366.348 374.641 366.325 374.57 366.325C373.683 366.538 372.75 366.679 371.798 366.679H58.9178C40.7358 366.674 25.8588 380.948 24.8008 398.87ZM242.347 121.59H336.772V142.452H313.087V166.142H289.562V189.827H265.872V213.36H242.336V263.242H363.128V237.033H268.544V216.174H292.234V192.49H315.759V168.8H339.448V145.28H363.127V95.237H242.347V121.59ZM188.949 192.49H245.214V166.137H188.949V192.49ZM55.4098 263.229H81.6098V216.173H105.289V216.023H149.829V263.242H176.183V142.452H152.495V118.611H128.81V95.237H102.608V118.921H78.9228V142.611H55.3888V263.229H55.4098Z" fill="#9B8ACA"/>
</svg>
